<svg t="1672819788414" class="icon" viewBox="0 0 1024 1024" version="1.1" xmlns="http://www.w3.org/2000/svg" p-id="2653" width="64" height="64"><path d="M747.6 790.9h-471c-19.7 0-35.7 16.2-35.7 36.1 0 19.9 16 36.1 35.7 36.1h471c19.7 0 35.7-16.2 35.7-36.1-0.1-19.9-16-36.1-35.7-36.1z m107.1-630H169.4c-31.5 0-57.1 25.9-57.1 57.8V681c0 31.8 25.5 57.8 57.1 57.8h685.2c31.5 0 57.1-25.8 57.1-57.8V218.7c0-31.9-25.5-57.8-57-57.8z m-90.3 231L607.1 551.1c-11.1 9-27 9-38.1 0l-133.3-135-133.3 135c-13.7 10-32.9 7-42.8-6.9-7.8-10.8-7.8-25.6 0-36.4L417 348.6c10.9-9 26.6-9 37.5 0l133.6 135.2 133.6-135.2c13.7-10 32.9-7 42.8 6.9 7.7 10.8 7.7 25.5-0.1 36.4z m0 0" p-id="2654"></path></svg>