<?xml version="1.0" encoding="UTF-8"?>
<!DOCTYPE svg PUBLIC "-//W3C//DTD SVG 1.1//EN" "http://www.w3.org/Graphics/SVG/1.1/DTD/svg11.dtd">
<svg xmlns="http://www.w3.org/2000/svg" version="1.1" width="34px" height="30px" style="shape-rendering:geometricPrecision; text-rendering:geometricPrecision; image-rendering:optimizeQuality; fill-rule:evenodd; clip-rule:evenodd" xmlns:xlink="http://www.w3.org/1999/xlink">
<g><path style="opacity:0.94" fill="#7f88ab" d="M 7.5,-0.5 C 9.16667,-0.5 10.8333,-0.5 12.5,-0.5C 12.5,0.5 12.5,1.5 12.5,2.5C 15.1667,2.5 17.8333,2.5 20.5,2.5C 20.5,1.5 20.5,0.5 20.5,-0.5C 22.1667,-0.5 23.8333,-0.5 25.5,-0.5C 25.5,0.5 25.5,1.5 25.5,2.5C 28.5133,2.1072 31.1799,2.77386 33.5,4.5C 33.5,12.1667 33.5,19.8333 33.5,27.5C 22.1667,28.8333 10.8333,28.8333 -0.5,27.5C -0.5,19.8333 -0.5,12.1667 -0.5,4.5C 1.82007,2.77386 4.48674,2.1072 7.5,2.5C 7.5,1.5 7.5,0.5 7.5,-0.5 Z M 8.5,3.5 C 9.5,3.5 10.5,3.5 11.5,3.5C 11.5,4.5 11.5,5.5 11.5,6.5C 10.5,6.5 9.5,6.5 8.5,6.5C 8.5,5.5 8.5,4.5 8.5,3.5 Z M 21.5,3.5 C 22.5,3.5 23.5,3.5 24.5,3.5C 24.5,4.5 24.5,5.5 24.5,6.5C 23.5,6.5 22.5,6.5 21.5,6.5C 21.5,5.5 21.5,4.5 21.5,3.5 Z M 14.5,13.5 C 15.0899,12.234 15.5899,10.9007 16,9.5C 16.8442,11.4628 16.3442,12.7961 14.5,13.5 Z M 10.5,17.5 C 9.83333,17.5 9.16667,17.5 8.5,17.5C 9.69532,13.7139 10.362,13.7139 10.5,17.5 Z M 10.5,17.5 C 11.1667,17.5 11.8333,17.5 12.5,17.5C 12.2627,21.2887 11.5961,21.2887 10.5,17.5 Z M 19.5,17.5 C 25.3239,17.3466 25.6572,18.0133 20.5,19.5C 19.846,21.1151 19.346,22.7818 19,24.5C 18.654,22.7818 18.154,21.1151 17.5,19.5C 17.8457,18.3044 18.3457,18.3044 19,19.5C 19.4643,18.9056 19.631,18.2389 19.5,17.5 Z"/></g>
</svg>
