<?xml version="1.0" encoding="UTF-8"?>
<!DOCTYPE svg PUBLIC "-//W3C//DTD SVG 1.1//EN" "http://www.w3.org/Graphics/SVG/1.1/DTD/svg11.dtd">
<svg xmlns="http://www.w3.org/2000/svg" version="1.1" width="28px" height="28px" style="shape-rendering:geometricPrecision; text-rendering:geometricPrecision; image-rendering:optimizeQuality; fill-rule:evenodd; clip-rule:evenodd" xmlns:xlink="http://www.w3.org/1999/xlink">
<g><path style="opacity:0.827" fill="#7e89ab" d="M -0.5,-0.5 C 8.83333,-0.5 18.1667,-0.5 27.5,-0.5C 27.5,8.83333 27.5,18.1667 27.5,27.5C 18.1667,27.5 8.83333,27.5 -0.5,27.5C -0.5,18.1667 -0.5,8.83333 -0.5,-0.5 Z M 1.5,1.5 C 9.5,1.5 17.5,1.5 25.5,1.5C 25.5,9.5 25.5,17.5 25.5,25.5C 17.5,25.5 9.5,25.5 1.5,25.5C 1.5,17.5 1.5,9.5 1.5,1.5 Z"/></g>
<g><path style="opacity:0.868" fill="#7a8eab" d="M 4.5,4.5 C 6.16667,4.5 7.83333,4.5 9.5,4.5C 9.5,11.1667 9.5,17.8333 9.5,24.5C 7.83333,24.5 6.16667,24.5 4.5,24.5C 4.5,17.8333 4.5,11.1667 4.5,4.5 Z"/></g>
<g><path style="opacity:0.842" fill="#7d88ab" d="M 11.5,9.5 C 13.1667,9.5 14.8333,9.5 16.5,9.5C 16.5,14.5 16.5,19.5 16.5,24.5C 14.8333,24.5 13.1667,24.5 11.5,24.5C 11.5,19.5 11.5,14.5 11.5,9.5 Z"/></g>
<g><path style="opacity:0.736" fill="#7e88ab" d="M 18.5,13.5 C 20.1667,13.5 21.8333,13.5 23.5,13.5C 23.5,17.1667 23.5,20.8333 23.5,24.5C 21.8333,24.5 20.1667,24.5 18.5,24.5C 18.5,20.8333 18.5,17.1667 18.5,13.5 Z"/></g>
</svg>
