
<?xml version="1.0" standalone="no"?><!DOCTYPE svg PUBLIC "-//W3C//DTD SVG 1.1//EN" "http://www.w3.org/Graphics/SVG/1.1/DTD/svg11.dtd"><svg t="1669103780351" class="icon" viewBox="0 0 1024 1024" version="1.1" xmlns="http://www.w3.org/2000/svg" p-id="1600" width="64" height="64" xmlns:xlink="http://www.w3.org/1999/xlink"><path d="M414.506667 176.64h188.16a46.101333 46.101333 0 0 0 39.68-51.626667c-2.773333-20.906667-19.626667-37.546667-40.746667-39.68h-187.093333a45.952 45.952 0 0 0-40.96 50.346667c2.133333 21.76 19.2 38.826667 40.96 40.96z" p-id="1601" ></path><path d="M804.693333 115.84h-93.226666c1.066667 4.906667 1.493333 10.026667 1.493333 15.146667 0 38.4-27.733333 76.16-61.013333 76.16H365.866667c-34.986667 0-62.72-37.76-62.72-76.16 0-5.12 0.64-10.24 1.493333-15.146667H210.346667c-75.733333 0-94.506667 42.88-94.506667 104.96v613.973333c0 66.56 26.666667 103.893333 100.053333 103.893334h583.04c73.386667 0 109.226667-29.226667 109.226667-103.893334V220.8c0-62.08-33.493333-104.96-103.466667-104.96z m-68.693333 642.133333h-448c-23.466667 0-42.666667-19.2-42.666667-42.666666s19.2-42.666667 42.666667-42.666667h448c23.466667 0 42.666667 19.2 42.666667 42.666667s-19.2 42.666667-42.666667 42.666666z m0-188.16h-448c-23.466667 0-42.666667-19.2-42.666667-42.666666s19.2-42.666667 42.666667-42.666667h448c23.466667 0 42.666667 19.2 42.666667 42.666667s-19.2 42.666667-42.666667 42.666666z m0-188.16h-448c-23.466667 0-42.666667-19.2-42.666667-42.666666s19.2-42.666667 42.666667-42.666667h448c23.466667 0 42.666667 19.2 42.666667 42.666667s-19.2 42.666667-42.666667 42.666666z" p-id="1602"></path></svg>