<?xml version="1.0" encoding="UTF-8"?>
<svg width="240px" height="240px" viewBox="0 0 240 240" version="1.1" xmlns="http://www.w3.org/2000/svg" xmlns:xlink="http://www.w3.org/1999/xlink">
    <title>线性图标/科技/雷达</title>
    <defs>
        <linearGradient x1="50%" y1="0%" x2="50%" y2="100%" id="linearGradient-1">
            <stop stop-color="#FFFFFF" offset="0%"></stop>
            <stop stop-color="var(--color-stop-2)" offset="64.6856561%"></stop>
            <stop stop-color="var(--color-stop-2)" offset="86.6656537%"></stop>
            <stop stop-color="var(--color-stop-2)" offset="100%"></stop>
        </linearGradient>
        <path d="M120.000001,48 C159.764518,48 192.000001,80.235481 192.000001,120 C192.000001,159.764518 159.764518,192 120.000001,192 C80.2354818,192 48.0000009,159.764518 48.0000009,120 C48.0000009,80.235481 80.2354818,48 120.000001,48 Z M81.8167166,125.051589 L58.2494643,125.051225 C60.6860765,155.248015 84.7761492,179.329526 114.976709,181.752783 L114.976461,158.186948 C97.7343361,155.940769 84.0752643,142.289826 81.8167166,125.051589 Z M181.750536,125.051225 L158.183283,125.051589 C155.924736,142.289826 142.265664,155.940769 125.023539,158.186948 L125.023291,181.752783 C155.223851,179.329526 179.313923,155.248015 181.750536,125.051225 Z M114.976,125.051 L99.924,125.051 L99.9039631,125.052054 L98.319,125.051 L91.9818177,125.051805 C94.0739455,136.732447 103.291586,145.942428 114.976169,148.023178 L114.976,125.051 Z M148.018182,125.051805 L125.023,125.051 L125.023831,148.023178 C136.708414,145.942428 145.926054,136.732447 148.018182,125.051805 Z M114.976169,91.976821 C103.274265,94.0606554 94.0466238,103.294872 91.972561,115.000154 L98.322,115.004 L114.976,115.004 Z M125.023831,91.976821 L125.023,115.004 L148.028147,115.004152 C145.955477,103.296975 136.727067,94.0608927 125.023831,91.976821 Z M125.023291,58.2472157 L125.023539,81.8130511 C142.284326,84.0616612 155.9543,97.7397374 158.190577,115.004397 L181.755019,115.004647 C179.343633,84.7816933 155.242475,60.6719675 125.023291,58.2472157 Z M114.976709,58.2472157 C84.7655068,60.671327 60.669099,84.7689585 58.2468965,114.9807 L81.810716,114.994424 C84.0509645,97.7344703 97.7189973,84.0612283 114.976461,81.8130511 Z" id="path-2"></path>
        <filter x="-20.8%" y="-20.8%" width="141.7%" height="141.7%" filterUnits="objectBoundingBox" id="filter-3">
            <feOffset dx="0" dy="0" in="SourceAlpha" result="shadowOffsetOuter1"></feOffset>
            <feGaussianBlur stdDeviation="10" in="shadowOffsetOuter1" result="shadowBlurOuter1"></feGaussianBlur>
            <feColorMatrix values="0 0 0 0 0   0 0 0 0 0.519930753   0 0 0 0 1  0 0 0 0.715140816 0" type="matrix" in="shadowBlurOuter1"></feColorMatrix>
        </filter>
    </defs>
    <g id="可视化---icon线性图标库" stroke="none" stroke-width="1" fill="none" fill-rule="evenodd">
        <g id="科技" transform="translate(-808.000000, -100.000000)">
            <g id="形状结合" transform="translate(808.000000, 100.000000)">
                <use fill="black" fill-opacity="1" filter="url(#filter-3)" xlink:href="#path-2"></use>
                <use fill="url(#linearGradient-1)" fill-rule="evenodd" xlink:href="#path-2"></use>
            </g>
        </g>
    </g>
</svg>