<svg t="1668132312200" class="icon" viewBox="0 0 1024 1024" version="1.1" xmlns="http://www.w3.org/2000/svg" p-id="8498" width="128" height="128"><path d="M938.666667 85.333333v853.333334H85.333333V85.333333h853.333334m85.333333-85.333333H0v1024h1024V0z" p-id="8499"></path><path d="M741.333333 786.56h-69.76c-11.733333 0-21.973333-7.466667-25.6-18.56l-29.013333-88.746667c-3.626667-11.093333-13.866667-18.56-25.6-18.56H430.933333c-11.733333 0-21.973333 7.466667-25.6 18.773334L376.96 768c-3.626667 11.093333-13.866667 18.773333-25.6 18.773333h-68.693333c-18.773333 0-31.786667-18.56-25.386667-36.266666l181.333333-495.573334c3.84-10.666667 14.08-17.706667 25.386667-17.706666h99.84c11.306667 0 21.546667 7.04 25.386667 17.92l177.92 495.573333c5.76 17.28-7.253333 35.84-25.813334 35.84z m-195.413333-216.32c18.346667 0 31.36-17.92 25.6-35.413333l-50.773333-155.093334c-4.053333-12.16-6.826667-27.946667-8.533334-47.786666h-3.2c-1.493333 16-4.693333 31.573333-9.6 46.506666l-51.2 156.586667c-5.76 17.493333 7.253333 35.413333 25.6 35.413333l72.106667-0.213333z" p-id="8500"></path></svg>