<svg t="1672820311764" class="icon" viewBox="0 0 1024 1024" version="1.1" xmlns="http://www.w3.org/2000/svg" p-id="2705" width="64" height="64"><path d="M448 256.5h128c35.3 0 64-28.7 64-64s-28.7-64-64-64H448c-35.3 0-64 28.7-64 64s28.7 64 64 64z" p-id="2706"></path><path d="M725.3 212.9H704c0 58.9-47.8 106.7-106.7 106.7H426.7c-58.9 0-106.7-47.8-106.7-106.7h-21.3c-46.9 0-85.3 38.4-85.3 85.3v512c0 46.9 38.4 85.3 85.3 85.3h426.7c46.9 0 85.3-38.4 85.3-85.3v-512c0-46.9-38.4-85.3-85.4-85.3z m-42.6 627.9c-42.6 0-77.6-31.3-84-72.1H425.3c-6.4 40.8-41.4 72.1-84 72.1-47.1 0-85.3-38.2-85.3-85.3 0-47.1 38.2-85.3 85.3-85.3 17.9 0 34.5 5.6 48.2 15l87.1-150.9c-29.4-13.5-50-43-50-77.5 0-47.1 38.2-85.3 85.3-85.3s85.3 38.2 85.3 85.3c0 34.5-20.6 64-50 77.5l87.1 150.9c13.7-9.4 30.3-15 48.2-15 47.1 0 85.3 38.2 85.3 85.3 0.2 47.1-38 85.3-85.1 85.3z" p-id="2707"></path><path d="M512 558.4l-79.5 137.7c-7.7 13.3 1.9 29.9 17.2 29.9h124.6c15.3 0 24.9-16.6 17.2-29.9L512 558.4z" p-id="2708"></path></svg>