<svg t="1672820239642" class="icon" viewBox="0 0 1024 1024" version="1.1" xmlns="http://www.w3.org/2000/svg" p-id="1621" width="64" height="64"><path d="M851.456 588.288c-13.312 0-25.6 2.048-37.888 5.12l-90.112-155.648 55.296-31.744c18.944 17.92 44.032 29.184 72.192 29.184 57.344 0 103.936-46.592 103.936-103.936s-46.592-103.936-103.936-103.936c-57.344 0-103.936 46.592-103.936 103.936 0 5.12 0.512 10.24 1.536 15.36l-58.368 33.792-82.944-143.872c26.112-25.088 41.984-59.904 41.984-98.816 0-75.776-61.44-137.216-137.216-137.216s-137.216 61.44-137.216 137.216c0 38.912 15.872 73.728 41.984 98.816l-84.992 146.944-56.832-32.768c1.024-6.144 2.048-12.8 2.048-19.456 0-57.344-46.592-103.936-103.936-103.936-57.344 0-103.936 46.592-103.936 103.936s46.592 103.936 103.936 103.936c26.624 0 51.2-10.24 69.12-26.624l56.32 32.768-88.064 152.576c-11.776-3.584-24.576-5.12-37.888-5.12-75.776 0-137.216 61.44-137.216 137.216s61.44 137.216 137.216 137.216c64.512 0 118.272-44.544 133.12-103.936h173.056v61.44c-40.96 13.824-70.656 52.736-70.656 98.816 0 57.344 46.592 103.936 103.936 103.936s103.936-46.592 103.936-103.936c0-46.08-29.696-84.48-70.656-98.816v-61.44h173.056c14.848 59.904 69.12 103.936 133.12 103.936 75.776 0 137.216-61.44 137.216-137.216s-61.44-137.728-137.216-137.728z m-410.112-450.048c0-38.912 31.744-70.656 70.656-70.656s70.656 31.744 70.656 70.656c0 13.824-4.096 26.624-10.752 37.376-12.288 19.456-33.28 32.256-57.856 33.28h-5.12c-24.576-1.024-45.568-13.824-57.856-33.28-6.144-10.752-9.728-24.064-9.728-37.376z m32.768 132.096c11.776 3.584 24.576 5.12 37.888 5.12s25.6-2.048 37.888-5.12l82.944 143.872-124.416 72.192-118.784-68.608 84.48-147.456z m-301.568 526.336c-38.912 0-70.656-31.744-70.656-70.656 0-38.912 31.744-70.656 70.656-70.656h2.56c24.576 1.024 45.568 13.824 57.856 33.28 1.024 1.536 1.536 2.56 2.56 4.096 5.12 9.728 8.192 20.992 8.192 33.28 0 11.776-3.072 23.552-8.192 33.28-12.288 22.016-35.84 37.376-62.976 37.376z m133.12-103.936c-6.144-25.6-19.456-48.128-37.888-65.536l88.064-152.576 122.88 70.656v146.944h-173.056z m239.616-151.552l120.832-69.632 90.112 155.648c-18.432 17.408-31.744 39.936-37.888 65.536h-173.056v-151.552z m306.176 255.488c-27.136 0-50.688-15.36-62.464-37.376-5.12-9.728-8.192-21.504-8.192-33.28 0-12.288 3.072-23.552 8.192-33.28 0.512-1.536 1.536-3.072 2.56-4.096 12.288-19.456 33.28-32.768 57.856-33.28h2.56c38.912 0 70.656 31.744 70.656 70.656-0.512 38.912-32.256 70.656-71.168 70.656z" p-id="1622"></path></svg>