<svg t="1668083038567" class="icon" viewBox="0 0 1024 1024" version="1.1" xmlns="http://www.w3.org/2000/svg" p-id="3815" width="128" height="128"><path d="M489 62c241.348 0 437 195.652 437 437S730.348 936 489 936 52 740.348 52 499 247.652 62 489 62z m-1.15 673.9c-13.338 0-24.15 10.838-24.15 24.207v66.586l0.007 0.571c0.302 13.106 10.996 23.636 24.143 23.636 13.338 0 24.15-10.838 24.15-24.207v-66.586l-0.007-0.571c-0.302-13.106-10.996-23.636-24.143-23.636z m199.054-69.42c-9.388-8.964-24.267-8.832-33.494 0.395-9.361 9.361-9.361 24.538 0 33.9l46.623 46.622 0.404 0.396c9.39 8.963 24.268 8.832 33.495-0.396 9.361-9.36 9.361-24.538 0-33.9l-46.623-46.622z m-401.34 0l-0.405 0.395-46.623 46.623c-9.36 9.36-9.36 24.538 0 33.9 9.228 9.227 24.106 9.358 33.495 0.395l0.405-0.396 46.623-46.623c9.36-9.36 9.36-24.538 0-33.899-9.228-9.227-24.106-9.36-33.495-0.395z m91.458-306.153c-9.546-8.74-24.299-8.238-33.238 1.242-9.083 9.632-8.724 24.886 0.803 34.07l78.833 76.003 0.222 0.21c-3.82 8.655-5.942 18.229-5.942 28.298 0 38.743 31.407 70.15 70.15 70.15 38.743 0 70.15-31.407 70.15-70.15 0-38.743-31.407-70.15-70.15-70.15-11.153 0-21.697 2.603-31.06 7.233-0.155-0.159-0.315-0.316-0.477-0.473l-78.833-76.002zM229.042 474.85h-66.585l-0.571 0.007c-13.106 0.302-23.636 10.996-23.636 24.143 0 13.338 10.838 24.15 24.207 24.15h66.586l0.571-0.007c13.106-0.302 23.636-10.996 23.636-24.143 0-13.338-10.838-24.15-24.207-24.15z m588.8 0h-66.585l-0.571 0.007c-13.106 0.302-23.636 10.996-23.636 24.143 0 13.338 10.838 24.15 24.207 24.15h66.586l0.571-0.007c13.106-0.302 23.636-10.996 23.636-24.143 0-13.338-10.838-24.15-24.207-24.15z m-329.992 3.147c12.235 0 22.153 9.918 22.153 22.153s-9.918 22.153-22.153 22.153-22.153-9.918-22.153-22.153 9.918-22.153 22.153-22.153z m-215.819-226.39c-9.389-8.965-24.267-8.833-33.495 0.395-9.36 9.36-9.36 24.538 0 33.899l46.623 46.623 0.405 0.395c9.389 8.964 24.267 8.832 33.495-0.395 9.36-9.361 9.36-24.539 0-33.9l-46.623-46.622z m433.938 0l-0.405 0.395-46.623 46.622c-9.36 9.361-9.36 24.539 0 33.9 9.228 9.227 24.106 9.359 33.495 0.395l0.405-0.395 46.623-46.623c9.36-9.361 9.36-24.538 0-33.9-9.228-9.227-24.106-9.359-33.495-0.395zM487.85 147.1c-13.338 0-24.15 10.838-24.15 24.207v66.586l0.007 0.571c0.302 13.106 10.996 23.636 24.143 23.636 13.338 0 24.15-10.838 24.15-24.207v-66.586l-0.007-0.571c-0.302-13.106-10.996-23.636-24.143-23.636z" p-id="3816"></path></svg>