<?xml version="1.0" standalone="no"?><!DOCTYPE svg PUBLIC "-//W3C//DTD SVG 1.1//EN" "http://www.w3.org/Graphics/SVG/1.1/DTD/svg11.dtd"><svg t="1674889683271" class="icon" viewBox="0 0 1024 1024" version="1.1" xmlns="http://www.w3.org/2000/svg" p-id="1974" xmlns:xlink="http://www.w3.org/1999/xlink" width="200" height="200"><path d="M810.88 495.8c-11.52 0-21.72-8.36-23.64-20.12-16.84-102.16-91.52-188.56-190.28-220.08a278.98 278.98 0 0 0-48.2-10.76 24.008 24.008 0 0 1 6.24-47.6c19.16 2.52 38.16 6.76 56.56 12.64 117.56 37.52 203.04 136.4 223.04 258a24 24 0 0 1-23.72 27.92zM472.68 845.8c-1.04 0-2.08-0.08-3.12-0.2-13.68-1.76-27.44-4.44-40.84-7.96-128.8-33.84-223.32-140.96-240.8-272.88-1.76-13.16 7.52-25.2 20.64-26.96 13.12-1.72 25.2 7.52 26.96 20.64 14.92 112.52 95.56 203.92 205.4 232.76 11.44 3 23.16 5.28 34.8 6.8 13.16 1.72 22.44 13.72 20.72 26.88a23.972 23.972 0 0 1-23.76 20.92z" p-id="1975"></path><path d="M441.72 475.12H209.04c-13.24 0-24-10.76-24-24V218.44c0-13.24 10.76-24 24-24h232.68c13.24 0 24 10.76 24 24v232.68c0 13.24-10.72 24-24 24z m-208.68-48h184.68V242.44H233.04v184.68zM814.96 848.32h-234.28c-13.24 0-24-10.76-24-24v-234.28c0-13.24 10.76-24 24-24h234.28c13.24 0 24 10.76 24 24v234.28c0 13.28-10.76 24-24 24z m-210.28-48h186.28v-186.28h-186.28v186.28z" p-id="1976"></path></svg>