<?xml version="1.0" standalone="no"?><!DOCTYPE svg PUBLIC "-//W3C//DTD SVG 1.1//EN" "http://www.w3.org/Graphics/SVG/1.1/DTD/svg11.dtd"><svg t="1674876896753" class="icon" viewBox="0 0 1024 1024" version="1.1" xmlns="http://www.w3.org/2000/svg" p-id="1782" xmlns:xlink="http://www.w3.org/1999/xlink" width="200" height="200"><path d="M249.344 812.992c0 17.856-14.592 32.512-32.448 32.512L123.52 845.504c-17.92 0-32.512-14.656-32.512-32.512L91.008 557.12c0-17.856 14.656-32.448 32.512-32.448l93.376 0c17.856 0 32.448 14.656 32.448 32.448L249.344 812.992z" p-id="1783"></path><path d="M475.456 812.992c0 17.856-14.656 32.512-32.512 32.512L349.568 845.504c-17.856 0-32.512-14.656-32.512-32.512l0-410.24c0-17.856 14.656-32.512 32.512-32.512l93.376 0c17.856 0 32.512 14.656 32.512 32.512L475.456 812.992z" p-id="1784"></path><path d="M701.568 812.992c0 17.856-14.592 32.512-32.448 32.512l-93.44 0c-17.92 0-32.512-14.656-32.512-32.512l0-621.44c0-17.856 14.656-32.512 32.512-32.512l93.44 0c17.856 0 32.448 14.656 32.448 32.512L701.568 812.992z"  p-id="1785"></path><path d="M927.68 812.992c0 17.856-14.656 32.512-32.512 32.512l-93.44 0c-17.728 0-32.576-14.656-32.576-32.512L769.152 475.904c0-17.856 14.784-32.512 32.576-32.512l93.44 0c17.856 0 32.512 14.656 32.512 32.512L927.68 812.992z" p-id="1786"></path><path d="M962.176 970.368c0 17.856-14.656 32.512-32.448 32.512L88.96 1002.88c-17.92 0-32.512-14.656-32.512-32.512l0-68.992c0-17.92 14.592-32.576 32.512-32.576l840.832 0c17.792 0 32.448 14.656 32.448 32.576L962.24 970.368z"  p-id="1787"></path><path d="M163.008 447.104m-29.824 0a0.466 0.466 0 1 0 59.648 0 0.466 0.466 0 1 0-59.648 0Z"  p-id="1788"></path><path d="M394.56 288.704m-29.76 0a0.465 0.465 0 1 0 59.52 0 0.465 0.465 0 1 0-59.52 0Z"  p-id="1789"></path><path d="M617.344 40.96m-29.824 0a0.466 0.466 0 1 0 59.648 0 0.466 0.466 0 1 0-59.648 0Z"  p-id="1790"></path><path d="M838.656 351.68m-29.76 0a0.465 0.465 0 1 0 59.52 0 0.465 0.465 0 1 0-59.52 0Z"  p-id="1791"></path><path d="M158.272 438.336 390.464 282.88 616.768 16.32 849.344 343.936 829.312 358.016 615.104 56 406.848 301.248 171.84 458.56 158.272 438.336Z"  p-id="1792"></path></svg>